# xmcd
#
# Track frame offsets:
#	150
#	22463
#	26350
#	53760
#	81743
#	106910
#	112672
#	141860
#	166022
#	191057
#	212500
#	241076
#	263329
#
# Disc length: 3834 seconds
#
# Revision: 1
# Processed by: cddbd v1.5.2PL0 Copyright (c) Steve Scherf et al.
# Submitted via: audiograbber 1.83.01
#
DISCID=a40ef80d
DTITLE=The Brown Sisters - The Brown Sisters live in Chicago
DYEAR=2009
DGENRE=Gospel
TTITLE0=Ain't Nothin' Like This
TTITLE1=Aint Nothin' (Reprise)
TTITLE2=Awesome God
TTITLE3=King Of Glory
TTITLE4=Abide
TTITLE5=Abide (Reprise)
TTITLE6=He's Coming Back
TTITLE7=Hold On
TTITLE8=Sacrifice Of Praise
TTITLE9=Sing Unto The Lord
TTITLE10=Perfect Will
TTITLE11=You Reign Lord
TTITLE12=You Reign Lord (Testimony)
EXTD=
EXTT0=
EXTT1=
EXTT2=
EXTT3=
EXTT4=
EXTT5=
EXTT6=
EXTT7=
EXTT8=
EXTT9=
EXTT10=
EXTT11=
EXTT12=
PLAYORDER=
